<?xml version="1.0" standalone="no"?>
<!DOCTYPE svg PUBLIC "-//W3C//DTD SVG 20010904//EN"
 "http://www.w3.org/TR/2001/REC-SVG-20010904/DTD/svg10.dtd">
<svg version="1.0" xmlns="http://www.w3.org/2000/svg"
 width="571.000000pt" height="118.000000pt" viewBox="0 0 571.000000 118.000000"
 preserveAspectRatio="xMidYMid meet">

<g transform="translate(0.000000,118.000000) scale(0.100000,-0.100000)"
fill="#000000" stroke="none">
<path d="M1259 1033 c-1 -4 -1 -11 0 -16 1 -4 5 -78 10 -165 7 -117 6 -197 -4
-311 -7 -91 -9 -164 -4 -177 10 -28 38 -44 76 -44 50 0 54 8 43 91 -13 100
-12 292 1 445 11 119 10 127 -8 152 -16 21 -30 28 -67 30 -25 2 -47 -1 -47 -5z"/>
<path d="M1519 1033 c-1 -4 -1 -11 0 -15 0 -4 5 -78 11 -165 8 -121 7 -194 -4
-312 -7 -85 -11 -164 -8 -175 8 -30 32 -45 72 -46 58 0 61 7 50 91 -13 100
-12 292 1 445 11 119 10 127 -8 152 -16 21 -30 28 -67 30 -25 2 -47 -1 -47 -5z"/>
<path d="M383 1010 c-176 -37 -286 -228 -253 -443 13 -88 51 -169 94 -202 108
-82 278 -72 376 23 78 76 92 165 30 197 -54 28 -65 22 -78 -47 -19 -103 -61
-142 -145 -135 -61 5 -96 30 -126 92 -50 99 -34 318 28 387 28 31 90 51 131
41 52 -12 90 -70 90 -138 0 -33 2 -35 34 -35 49 0 65 8 82 43 21 40 11 108
-23 147 -50 60 -149 89 -240 70z"/>
<path d="M3457 1006 c-96 -27 -176 -104 -218 -213 -18 -46 -22 -79 -23 -163 0
-92 3 -112 25 -160 33 -71 65 -105 123 -131 65 -28 151 -28 266 1 73 19 94 29
100 46 5 12 12 68 15 125 9 133 8 134 -118 130 -57 -1 -95 -7 -99 -14 -13 -21
-9 -46 13 -68 17 -17 28 -19 61 -14 l41 7 -5 -51 c-3 -29 -10 -57 -16 -63 -20
-20 -108 -37 -148 -28 -55 13 -86 40 -112 101 -20 47 -22 67 -19 159 3 75 10
120 25 158 23 61 40 77 95 92 79 23 147 -26 147 -106 l0 -44 40 0 c58 0 90 34
90 94 0 107 -146 180 -283 142z"/>
<path d="M888 811 c-111 -36 -173 -136 -173 -276 1 -146 55 -212 181 -223 85
-6 141 15 193 74 48 54 71 118 71 193 0 100 -35 177 -96 213 -36 21 -136 32
-176 19z m104 -90 c67 -53 69 -299 3 -325 -9 -3 -36 -6 -59 -6 -73 0 -106 58
-106 185 0 109 8 135 44 151 44 19 89 17 118 -5z"/>
<path d="M1875 796 c-99 -46 -140 -123 -140 -261 0 -114 25 -168 95 -202 119
-61 300 4 300 107 0 39 -10 53 -46 64 -18 5 -23 0 -33 -33 -31 -105 -174 -111
-195 -8 -18 86 -25 77 57 77 89 0 154 21 193 61 25 26 29 38 28 85 0 45 -5 59
-28 82 -52 55 -149 67 -231 28z m133 -72 c16 -11 22 -25 22 -54 0 -34 -4 -39
-31 -49 -18 -6 -58 -11 -90 -11 -55 0 -59 1 -59 24 0 49 13 84 34 94 32 16 99
14 124 -4z"/>
<path d="M2900 807 c-53 -17 -124 -93 -145 -156 -22 -66 -17 -199 8 -248 57
-109 240 -126 338 -33 59 56 50 113 -18 134 -19 6 -23 4 -23 -16 0 -25 -23
-64 -50 -85 -18 -15 -84 -17 -109 -3 -21 11 -51 79 -51 115 0 24 2 25 66 25
91 0 149 17 190 55 31 29 34 38 34 88 0 46 -4 60 -28 85 -45 48 -133 64 -212
39z m119 -88 c30 -28 26 -79 -9 -96 -35 -18 -149 -17 -156 1 -10 26 16 97 39
106 41 17 102 11 126 -11z"/>
<path d="M2365 794 c-116 -64 -178 -210 -142 -335 22 -74 61 -111 124 -116 63
-5 100 18 150 93 l38 58 7 -55 c13 -109 9 -163 -14 -209 -26 -51 -56 -70 -111
-70 -54 0 -96 44 -88 93 3 16 -29 18 -58 3 -46 -24 -58 -90 -23 -130 39 -44
148 -60 234 -34 50 15 122 78 151 132 20 38 21 55 22 266 0 124 4 239 9 256 7
29 6 31 -31 43 -21 7 -83 15 -138 17 -80 4 -106 1 -130 -12z m184 -73 c12 -7
9 -21 -13 -77 -33 -83 -85 -170 -121 -204 -29 -27 -51 -21 -72 21 -16 31 -17
140 -1 191 18 59 48 78 127 78 36 0 72 -4 80 -9z"/>
<path d="M3869 803 c-14 -3 -15 -10 -7 -46 6 -25 8 -116 4 -224 -6 -180 -5
-182 16 -198 24 -16 75 -20 96 -7 10 7 11 22 3 68 -11 70 5 149 48 235 41 83
101 104 106 37 2 -34 47 -36 80 -4 32 32 34 92 5 124 -53 57 -165 -1 -224
-115 -9 -18 -18 -33 -21 -33 -2 0 -1 22 2 49 3 27 3 60 0 73 -9 36 -58 55
-108 41z"/>
<path d="M4425 796 c-46 -20 -110 -96 -134 -160 -23 -63 -29 -175 -10 -223 16
-43 59 -82 101 -94 31 -8 46 -6 82 9 42 19 70 51 120 136 l24 39 -2 -77 c-1
-87 11 -106 68 -106 56 0 59 7 45 100 -11 79 -8 218 7 316 l6 42 -70 16 c-85
19 -196 20 -237 2z m175 -76 c12 -7 11 -18 -9 -77 -92 -269 -207 -327 -205
-103 0 100 19 159 54 177 29 15 138 17 160 3z"/>
<path d="M4852 803 c-20 -4 -21 -8 -15 -46 10 -54 10 -231 0 -324 -6 -65 -5
-75 13 -93 13 -13 33 -20 58 -20 55 0 62 8 52 60 -5 25 -9 63 -10 86 0 82 107
244 162 244 47 0 52 -19 39 -143 -6 -62 -11 -132 -11 -155 0 -57 26 -82 83
-82 24 0 46 2 49 5 2 3 -2 35 -10 72 -11 53 -12 78 -3 111 22 84 116 202 161
202 40 0 45 -24 32 -153 -16 -165 -15 -200 6 -227 15 -18 28 -22 66 -22 27 1
50 3 51 4 2 2 -3 32 -11 68 -10 48 -12 104 -7 216 l6 152 -26 26 c-60 60 -161
20 -248 -98 l-29 -39 0 52 c0 68 -29 101 -91 101 -58 0 -102 -24 -158 -88
l-48 -55 4 49 c4 38 1 54 -13 72 -20 23 -62 33 -102 25z"/>
</g>
</svg>
